<?xml version="1.0" encoding="iso-8859-1"?>
<!-- Generator: Adobe Illustrator 17.1.0, SVG Export Plug-In . SVG Version: 6.00 Build 0)  -->
<!DOCTYPE svg PUBLIC "-//W3C//DTD SVG 1.1//EN" "http://www.w3.org/Graphics/SVG/1.1/DTD/svg11.dtd">
<svg version="1.1" id="Capa_1" xmlns="http://www.w3.org/2000/svg" xmlns:xlink="http://www.w3.org/1999/xlink" x="0px" y="0px"
	 viewBox="0 0 197.729 197.729" style="enable-background:new 0 0 197.729 197.729;" xml:space="preserve">
<path d="M32.084,197.271c-0.197,0-0.397-0.029-0.596-0.091c-1.055-0.328-1.644-1.449-1.314-2.504l5.034-16.173
	c0.328-1.056,1.449-1.645,2.504-1.315c1.055,0.328,1.644,1.449,1.314,2.504l-5.034,16.173
	C33.726,196.722,32.936,197.271,32.084,197.271z M105.28,193.689c-0.015,0-0.029,0-0.044,0c-22.354-0.01-43.7-8.368-60.115-23.536
	c-0.541-0.5-0.764-1.258-0.578-1.972c0.186-0.713,0.748-1.267,1.465-1.441l12.116-2.935c0.033-0.009,0.067-0.017,0.101-0.024
	l21.225-5.141v-25.997c0-0.544,0.222-1.065,0.614-1.442c0.393-0.376,0.922-0.572,1.466-0.556l54.056,2.17l4.826-52.433
	c0.095-1.029,0.958-1.817,1.991-1.817h13.967l9.707-33.915c0.197-0.689,0.748-1.22,1.444-1.392c0.694-0.172,1.432,0.042,1.926,0.562
	c15.802,16.563,24.504,38.296,24.504,61.196c0,34.122-19.375,63.804-47.699,78.625c-0.182,0.136-0.379,0.237-0.584,0.303
	c-12.106,6.22-25.823,9.736-40.343,9.743C105.309,193.689,105.294,193.689,105.28,193.689z M50.675,169.725
	c15.162,12.813,34.246,19.866,54.188,19.963c2.64-1.181,5.194-2.937,5.549-3.815c-0.008-0.007-0.016-0.015-0.024-0.024
	c-0.914-0.885-5.291-0.79-7.906-0.736c-4.404,0.096-7.59,0.162-8.99-1.775c-0.353-0.486-0.865-1.521-0.349-2.985
	c1.122-3.18,0.582-3.936,0.518-4.012c-0.201-0.233-1.111-0.52-3.254-0.109c-2.299,0.442-4.173,1.596-5.827,2.614
	c-1.882,1.158-3.659,2.248-5.563,1.721c-1.136-0.316-2.066-1.164-2.765-2.519c-1.066-2.067-1.066-4.115-1.066-5.47
	c0-0.04,0-0.082,0-0.125c-0.282,0.098-0.646,0.239-1.11,0.44l-0.269,0.116c-6.084,2.639-9.139,3.962-13.053-0.658
	c-1.584-1.869-2.565-3.306-3.16-4.301L50.675,169.725z M105.133,181.074c3.379,0,6.362,0.281,8.036,1.899
	c1.019,0.985,1.447,2.237,1.208,3.526c-0.192,1.033-0.832,2-1.686,2.868c10.429-0.908,20.32-3.715,29.329-8.073
	c-3.145-4.532-9.413-15.206-3.712-21.383c2.728-2.955,5.362-4.417,7.286-5.483c2.653-1.472,3.276-1.902,3.186-4.077
	c-0.233-5.595,3.983-12.383,5.447-14.561c-0.594-3.972-2.216-18.619,5.382-22.549c5.383-2.784,9.918,1.751,13.563,5.393
	c2.127,2.125,4.54,4.537,6.049,4.298c4.138-0.641,8.22-3.486,9.681-4.593c0.688-4.34,1.047-8.791,1.047-13.321
	c0-20.686-7.436-40.374-21.012-55.829l-9.139,31.928c-0.246,0.858-1.03,1.45-1.923,1.45h-13.65l-4.833,52.507
	c-0.098,1.06-0.98,1.847-2.071,1.815l-53.873-2.163v25.488c0,0.923-0.632,1.727-1.529,1.944l-20.212,4.896
	c0.493,0.715,1.173,1.621,2.097,2.712c1.925,2.268,2.238,2.252,8.41-0.425l0.269-0.117c2.199-0.954,3.943-1.405,5.306-0.512
	c1.396,0.917,1.396,2.552,1.396,3.866c0,1.14,0,2.432,0.621,3.637c0.14,0.27,0.248,0.412,0.309,0.479
	c0.465-0.083,1.558-0.756,2.368-1.255c1.85-1.138,4.151-2.555,7.168-3.135c3.354-0.647,5.659-0.178,7.041,1.427
	c1.743,2.025,1.19,4.979,0.457,7.259c1.195,0.209,3.572,0.16,5.248,0.123C103.325,181.093,104.243,181.074,105.133,181.074z
	 M162.972,116.411c-0.515,0-1.021,0.122-1.524,0.383c-4.843,2.505-3.87,14.964-3.147,19.131c0.092,0.531-0.035,1.079-0.351,1.516
	c-1.5,2.074-5.354,8.406-5.173,12.744c0.197,4.725-2.567,6.258-5.241,7.741c-1.873,1.039-3.996,2.217-6.287,4.699
	c-3.507,3.799,1.384,12.568,4.37,16.822c21.068-11.464,36.757-31.615,42.224-55.609c-2.2,1.275-5.047,2.589-8.007,3.048
	c-3.52,0.54-6.553-2.488-9.489-5.421C167.372,118.493,165.096,116.411,162.972,116.411z M11.297,187.975
	c-0.512,0-1.023-0.195-1.414-0.586c-0.781-0.781-0.781-2.047,0-2.828l14.139-14.139c0.781-0.781,2.047-0.781,2.828,0
	c0.781,0.781,0.781,2.047,0,2.828l-14.139,14.139C12.321,187.78,11.809,187.975,11.297,187.975z M1.999,167.189
	c-0.853,0-1.642-0.549-1.908-1.406c-0.329-1.055,0.26-2.176,1.314-2.504l16.173-5.035c1.055-0.329,2.176,0.261,2.504,1.315
	c0.329,1.055-0.26,2.176-1.314,2.504l-16.173,5.035C2.397,167.16,2.197,167.189,1.999,167.189z M32.093,153.461
	c-0.677,0-1.317-0.344-1.687-0.927c-5.604-8.813-9.568-18.488-11.769-28.601c-0.023-0.083-0.042-0.168-0.055-0.254
	c-1.308-6.094-1.975-12.346-1.975-18.662c0-23.545,9.226-44.978,24.251-60.871c0.143-0.23,0.333-0.433,0.565-0.593
	c16.142-16.762,38.802-27.207,63.854-27.207c18.923,0,36.984,5.884,52.23,17.016c0.662,0.483,0.962,1.322,0.757,2.116l-7.941,30.739
	c-0.229,0.883-1.024,1.5-1.937,1.5h-19.119l-6.942,47.1c-0.153,1.041-1.105,1.774-2.134,1.703l-52.641-4.108v33.896
	c0,0.987-0.72,1.826-1.695,1.977l-33.459,5.155C32.295,153.453,32.194,153.461,32.093,153.461z M23.74,127.888
	c2.1,7.501,5.236,14.699,9.351,21.396l30.462-4.693v-34.342c0-0.558,0.232-1.09,0.642-1.468s0.961-0.567,1.514-0.526l52.935,4.131
	l6.922-46.961c0.145-0.981,0.986-1.708,1.979-1.708h19.297l7.211-27.913c-14.321-10.116-31.155-15.457-48.771-15.457
	c-23.515,0-44.823,9.637-60.181,25.167c1.476,1.983,5.187,5.328,12.104,2.183c10.71-4.868,23.675-6.633,27.737-0.591
	c1.337,1.99,1.73,4.271,2.047,6.104c0.152,0.882,0.436,2.522,0.75,2.716c0.004,0.002,0.372,0.176,1.623-0.208
	c4.922-1.508,12.354,1.036,16.235,5.563c3.196,3.729,3.724,8.326,1.484,12.944c-1.734,3.576-2.34,6.855-2.874,9.748
	c-1.018,5.509-1.979,10.713-11.259,10.713H69.279c-0.232,0.002-6.02,0.12-9.352,4.972c-0.967,1.408-1.422,3.167-1.903,5.029
	c-1.289,4.981-2.894,11.181-15.115,13.546c-4.381,0.848-4.399,2.218-4.438,4.947c-0.026,1.932-0.061,4.336-2.047,6.272
	C33.34,132.456,27.756,130.205,23.74,127.888z M22.366,122.232c4.379,3.173,9.937,5.647,11.268,4.353
	c0.764-0.744,0.814-1.75,0.838-3.462c0.041-2.928,0.103-7.353,7.678-8.819c9.742-1.886,10.79-5.934,12.003-10.621
	c0.547-2.115,1.113-4.302,2.479-6.291c4.542-6.617,12.316-6.708,12.645-6.708h23.671c5.951,0,6.297-1.875,7.325-7.44
	c0.552-2.986,1.238-6.703,3.208-10.766c1.545-3.187,1.235-6.079-0.922-8.596c-3.07-3.582-8.983-5.276-12.024-4.342
	c-2.044,0.627-3.645,0.559-4.891-0.208c-1.854-1.139-2.232-3.327-2.598-5.443c-0.277-1.609-0.564-3.272-1.426-4.553
	c-2.03-3.023-11.879-2.945-22.763,2.001c-8.142,3.701-13.715,0.509-16.538-2.876c-13.49,15.003-21.71,34.839-21.71,56.556
	C20.608,110.84,21.202,116.605,22.366,122.232z M179.555,39.577c-0.853,0-1.642-0.549-1.908-1.406
	c-0.329-1.054,0.26-2.175,1.314-2.504l16.173-5.035c1.056-0.327,2.176,0.26,2.504,1.315c0.329,1.054-0.26,2.175-1.314,2.504
	l-16.173,5.035C179.953,39.547,179.752,39.577,179.555,39.577z M172.293,27.894c-0.512,0-1.023-0.195-1.414-0.586
	c-0.781-0.781-0.781-2.047,0-2.828l14.14-14.139c0.781-0.781,2.047-0.781,2.828,0c0.781,0.781,0.781,2.047,0,2.828l-14.14,14.139
	C173.317,27.699,172.805,27.894,172.293,27.894z M160.613,20.632c-0.197,0-0.397-0.029-0.596-0.091
	c-1.055-0.329-1.644-1.45-1.314-2.504l5.035-16.173c0.328-1.055,1.448-1.644,2.504-1.315c1.055,0.329,1.644,1.45,1.314,2.504
	l-5.035,16.173C162.254,20.083,161.464,20.632,160.613,20.632z"/>
<g>
</g>
<g>
</g>
<g>
</g>
<g>
</g>
<g>
</g>
<g>
</g>
<g>
</g>
<g>
</g>
<g>
</g>
<g>
</g>
<g>
</g>
<g>
</g>
<g>
</g>
<g>
</g>
<g>
</g>
</svg>
