<?xml version="1.0" encoding="iso-8859-1"?>
<!-- Generator: Adobe Illustrator 19.0.0, SVG Export Plug-In . SVG Version: 6.00 Build 0)  -->
<svg version="1.1" id="Layer_1" xmlns="http://www.w3.org/2000/svg" xmlns:xlink="http://www.w3.org/1999/xlink" x="0px" y="0px"
	 viewBox="0 0 511.999 511.999" style="enable-background:new 0 0 511.999 511.999;" xml:space="preserve">
<g>
	<g>
		<g>
			<path d="M109.887,213.354l-19.541-87.659l209.323-41.173l9.131,42.581l35.755-35.413l-11.243-57.259
				c-4.544-23.125-26.987-38.165-50.112-33.621L73.898,41.983C50.751,46.527,35.711,68.97,40.255,92.074l28.821,146.539
				L109.887,213.354z"/>
			<path d="M323.22,426.666H109.887v-128H67.22v170.667c0,23.552,19.093,42.667,42.667,42.667H323.22
				c23.552,0,42.667-19.115,42.667-42.667v-128l-42.667,32V426.666z"/>
			<polygon points="472.554,127.999 365.887,127.999 259.22,255.999 323.22,255.999 259.22,362.666 451.22,213.332 365.887,213.332 
							"/>
			<polygon points="152.554,255.999 259.22,362.666 195.22,234.666 			"/>
		</g>
	</g>
</g>
<g>
</g>
<g>
</g>
<g>
</g>
<g>
</g>
<g>
</g>
<g>
</g>
<g>
</g>
<g>
</g>
<g>
</g>
<g>
</g>
<g>
</g>
<g>
</g>
<g>
</g>
<g>
</g>
<g>
</g>
</svg>
