<?xml version="1.0" encoding="iso-8859-1"?>
<!-- Generator: Adobe Illustrator 19.0.0, SVG Export Plug-In . SVG Version: 6.00 Build 0)  -->
<svg version="1.1" id="Layer_1" xmlns="http://www.w3.org/2000/svg" xmlns:xlink="http://www.w3.org/1999/xlink" x="0px" y="0px"
	 viewBox="0 0 512.013 512.013" style="enable-background:new 0 0 512.013 512.013;" xml:space="preserve">
<g>
	<g>
		<path d="M495.855,427.284c-20.139-5.056-26.816-56.384-33.259-106.048c-12.459-96.021-29.547-227.541-157.163-270.08
			c-48.811-16.277-115.413-8.533-165.717,19.307c-37.077,20.501-61.973,50.133-70.08,83.456c-2.069,8.469,1.237,17.323,8.341,22.4
			c7.104,5.035,16.555,5.312,23.893,0.597c20.629-13.227,44.416-20.203,68.8-20.203c71.765,0,128,56.235,128,128
			c0,73.493-35.904,119.936-109.717,141.909h-18.283v-21.333h21.333c8.619,0,16.405-5.184,19.712-13.163
			c3.307-7.979,1.472-17.152-4.629-23.253l-85.333-85.333c-8.341-8.341-21.824-8.341-30.165,0L6.255,368.873
			c-6.101,6.101-7.936,15.275-4.629,23.253c3.307,7.979,11.093,13.163,19.712,13.163h21.333v64h234.667
			c37.056,0,61.227-11.264,76.309-22.955c13.163,12.011,35.477,22.955,73.024,22.955h64c10.773,0,19.861-8.021,21.184-18.731
			C513.156,439.87,506.287,429.865,495.855,427.284z M128.004,383.956v42.667H85.337v-42.667c0-9.152-5.76-16.939-13.845-19.989
			l35.179-35.179l35.179,35.179C133.764,367.017,128.004,374.804,128.004,383.956z M426.671,426.622
			c-43.52,0-49.408-18.219-49.493-18.219c-1.515-9.024-8.768-15.787-17.813-17.237c-9.067-1.344-18.133,3.328-22.4,11.413
			c-0.491,0.96-12.565,22.976-56.427,23.979c40.043-33.536,60.8-81.451,60.8-141.845c0-95.68-74.965-170.667-170.667-170.667
			c-7.68,0-15.317,0.512-22.869,1.536c3.925-2.731,8.107-5.333,12.565-7.787c39.893-22.059,93.995-28.715,131.563-16.171
			C394.18,125.694,408.047,232.51,420.292,326.74c4.971,38.293,9.579,73.728,20.757,99.883H426.671z"/>
	</g>
</g>
<g>
</g>
<g>
</g>
<g>
</g>
<g>
</g>
<g>
</g>
<g>
</g>
<g>
</g>
<g>
</g>
<g>
</g>
<g>
</g>
<g>
</g>
<g>
</g>
<g>
</g>
<g>
</g>
<g>
</g>
</svg>
