<?xml version="1.0" encoding="iso-8859-1"?>
<!-- Generator: Adobe Illustrator 19.0.0, SVG Export Plug-In . SVG Version: 6.00 Build 0)  -->
<svg version="1.1" id="Layer_1" xmlns="http://www.w3.org/2000/svg" xmlns:xlink="http://www.w3.org/1999/xlink" x="0px" y="0px"
	 viewBox="0 0 512 512" style="enable-background:new 0 0 512 512;" xml:space="preserve">
<g>
	<g>
		<g>
			<path d="M213.333,352.512v-72.171c-36.416,15.851-64,54.08-64,98.837c0,58.923,47.744,106.667,106.667,106.667
				s106.667-47.744,106.667-106.667c0-54.955,0-106.667-106.667-213.333C291.563,308.032,213.333,352.512,213.333,352.512z"/>
			<path d="M205.44,154.411l-17.003-39.125c-53.483,23.253-91.008,71.509-100.352,129.109l42.112,6.827
				C137.088,208.683,165.931,171.584,205.44,154.411z"/>
			<path d="M322.24,115.285l-17.024,39.125c39.509,17.173,68.352,54.272,75.264,96.811l42.112-6.827
				C413.248,186.795,375.723,138.539,322.24,115.285z"/>
			<path d="M325.824,26.155l-11.627,41.067c91.328,25.835,155.136,110.272,155.136,205.291H512
				C512,158.485,435.435,57.195,325.824,26.155z"/>
			<path d="M197.781,67.243l-11.605-41.067C76.565,57.173,0,158.464,0,272.512h42.667C42.667,177.472,106.453,93.056,197.781,67.243
				z"/>
		</g>
	</g>
</g>
<g>
</g>
<g>
</g>
<g>
</g>
<g>
</g>
<g>
</g>
<g>
</g>
<g>
</g>
<g>
</g>
<g>
</g>
<g>
</g>
<g>
</g>
<g>
</g>
<g>
</g>
<g>
</g>
<g>
</g>
</svg>
